# xmcd
#
# Track frame offsets: 
#        150
#        35157
#        102578
#        142448
#        179443
#        238157
#
# Disc length: 3907 seconds
#
# Revision: 5
# Processed by: cddbd v1.5.2PL0 Copyright (c) Steve Scherf et al.
# Submitted via: ExactAudioCopy v1.1
#
DISCID=600f4106
DTITLE=Chick Corea Hiromi - Duet CD 2
DYEAR=2008
DGENRE=Jazz
TTITLE0=Chick Corea and Hiromi - Windows
TTITLE1=Chick Corea and Hiromi - Old Castle, by the River, in the Middle
TTITLE1=of a Forest
TTITLE2=Chick Corea and Hiromi - Summertime
TTITLE3=Chick Corea and Hiromi - Place to Be
TTITLE4=Chick Corea and Hiromi - Do Mo (Children's Song #12)
TTITLE5=Chick Corea and Hiromi - Concierto de Aranjuez - Spain
EXTD=YEAR: 2008
EXTT0=
EXTT1=
EXTT2=
EXTT3=
EXTT4=
EXTT5=
PLAYORDER=
